<svg width="1728" height="236" viewBox="0 0 1728 236" fill="none" xmlns="http://www.w3.org/2000/svg">
<path d="M11.6298 140.532V0M742.474 140.532V0M377.052 140.532V0M1107.9 140.532V0M1473.32 140.532V0M133.437 0V93.6877M864.281 0V93.6877M498.859 0V93.6877M1229.7 0V93.6877M1595.12 0V93.6877M255.244 0V140.532M986.088 0V140.532M620.666 0V140.532M1351.51 0V140.532M1716.93 0V140.532M31.9009 83.329L-8.67152 106.751M762.745 83.329L722.172 106.751M397.323 83.329L356.75 106.751M1128.17 83.329L1087.59 106.751M1493.59 83.329L1453.02 106.751M153.708 84.1097L113.136 107.532M884.552 84.1097L843.979 107.532M519.13 84.1097L478.558 107.532M1249.97 84.1097L1209.4 107.532M1615.4 84.1097L1574.82 107.532M275.515 83.329L234.943 106.751M1006.36 83.329L965.787 106.751M640.937 83.329L600.365 106.751M1371.78 83.329L1331.21 106.751M1737.2 83.329L1696.63 106.751M133.437 94.4684V141.312M864.281 94.4684V141.312M498.859 94.4684V141.312M1229.7 94.4684V141.312M1595.12 94.4684V141.312M1763 94.4684H-36M57.6979 187.375C57.6979 213.247 36.7229 234.219 10.849 234.219C-15.025 234.219 -36 213.247 -36 187.375C-36 161.504 -15.025 140.532 10.849 140.532C36.7229 140.532 57.6979 161.504 57.6979 187.375ZM788.542 187.375C788.542 213.247 767.567 234.219 741.693 234.219C715.819 234.219 694.844 213.247 694.844 187.375C694.844 161.504 715.819 140.532 741.693 140.532C767.567 140.532 788.542 161.504 788.542 187.375ZM423.12 187.375C423.12 213.247 402.145 234.219 376.271 234.219C350.397 234.219 329.422 213.247 329.422 187.375C329.422 161.504 350.397 140.532 376.271 140.532C402.145 140.532 423.12 161.504 423.12 187.375ZM1153.96 187.375C1153.96 213.247 1132.99 234.219 1107.11 234.219C1081.24 234.219 1060.27 213.247 1060.27 187.375C1060.27 161.504 1081.24 140.532 1107.11 140.532C1132.99 140.532 1153.96 161.504 1153.96 187.375ZM1519.39 187.375C1519.39 213.247 1498.41 234.219 1472.54 234.219C1446.66 234.219 1425.69 213.247 1425.69 187.375C1425.69 161.504 1446.66 140.532 1472.54 140.532C1498.41 140.532 1519.39 161.504 1519.39 187.375ZM179.505 188.156C179.505 214.027 158.53 235 132.656 235C106.782 235 85.8073 214.027 85.8073 188.156C85.8073 162.285 106.782 141.312 132.656 141.312C158.53 141.312 179.505 162.285 179.505 188.156ZM910.349 188.156C910.349 214.027 889.374 235 863.5 235C837.626 235 816.651 214.027 816.651 188.156C816.651 162.285 837.626 141.312 863.5 141.312C889.374 141.312 910.349 162.285 910.349 188.156ZM544.927 188.156C544.927 214.027 523.952 235 498.078 235C472.204 235 451.229 214.027 451.229 188.156C451.229 162.285 472.204 141.312 498.078 141.312C523.952 141.312 544.927 162.285 544.927 188.156ZM1275.77 188.156C1275.77 214.027 1254.8 235 1228.92 235C1203.05 235 1182.07 214.027 1182.07 188.156C1182.07 162.285 1203.05 141.312 1228.92 141.312C1254.8 141.312 1275.77 162.285 1275.77 188.156ZM1641.19 188.156C1641.19 214.027 1620.22 235 1594.34 235C1568.47 235 1547.49 214.027 1547.49 188.156C1547.49 162.285 1568.47 141.312 1594.34 141.312C1620.22 141.312 1641.19 162.285 1641.19 188.156ZM301.312 187.375C301.312 213.247 280.338 234.219 254.464 234.219C228.59 234.219 207.615 213.247 207.615 187.375C207.615 161.504 228.59 140.532 254.464 140.532C280.338 140.532 301.312 161.504 301.312 187.375ZM1032.16 187.375C1032.16 213.247 1011.18 234.219 985.307 234.219C959.433 234.219 938.458 213.247 938.458 187.375C938.458 161.504 959.433 140.532 985.307 140.532C1011.18 140.532 1032.16 161.504 1032.16 187.375ZM666.734 187.375C666.734 213.247 645.759 234.219 619.885 234.219C594.011 234.219 573.036 213.247 573.036 187.375C573.036 161.504 594.011 140.532 619.885 140.532C645.759 140.532 666.734 161.504 666.734 187.375ZM1397.58 187.375C1397.58 213.247 1376.6 234.219 1350.73 234.219C1324.86 234.219 1303.88 213.247 1303.88 187.375C1303.88 161.504 1324.86 140.532 1350.73 140.532C1376.6 140.532 1397.58 161.504 1397.58 187.375ZM1763 187.375C1763 213.247 1742.02 234.219 1716.15 234.219C1690.28 234.219 1669.3 213.247 1669.3 187.375C1669.3 161.504 1690.28 140.532 1716.15 140.532C1742.02 140.532 1763 161.504 1763 187.375ZM0.362843 206.113C0.362843 206.113 0.362843 194.577 0.362843 171.506C0.362843 171.506 3.06215 171.506 8.46076 171.506C10.5501 171.506 12.281 171.666 13.6535 171.986C15.0413 172.307 16.2308 172.818 17.2221 173.519C18.1981 174.236 18.953 175.204 19.4867 176.424C20.0357 177.644 20.3103 179.001 20.3103 180.495C20.3103 182.218 19.9976 183.659 19.3724 184.818C18.7623 185.962 17.7939 186.907 16.4672 187.654C18.4802 188.508 19.9519 189.614 20.8821 190.971C21.8124 192.328 22.2775 194.067 22.2775 196.186C22.2775 197.97 21.9344 199.579 21.2481 201.012C20.5619 202.43 19.6087 203.521 18.3887 204.283C17.2907 204.939 16.0097 205.412 14.5456 205.701C13.0969 205.976 11.2211 206.113 8.91827 206.113H0.362843ZM3.81704 202.979H8.55226C11.9836 202.979 14.4846 202.552 16.0554 201.698C16.8789 201.272 17.5347 200.578 18.0227 199.617C18.526 198.641 18.7776 197.558 18.7776 196.369C18.7776 194.829 18.4192 193.518 17.7024 192.435C17.0009 191.337 16.0249 190.59 14.7744 190.193C13.2646 189.751 10.9847 189.53 7.93462 189.53H3.81704V202.979ZM3.81704 186.396H8.049C9.60453 186.396 10.8246 186.335 11.7091 186.213C12.6088 186.076 13.4171 185.84 14.1339 185.504C15.0031 185.108 15.6589 184.483 16.1012 183.629C16.5587 182.775 16.7874 181.746 16.7874 180.541C16.7874 179.519 16.6044 178.582 16.2384 177.728C15.8724 176.874 15.3844 176.248 14.7744 175.852C14.1339 175.41 13.2875 175.097 12.2352 174.914C11.1982 174.731 9.77991 174.64 7.98037 174.64H3.81704V186.396ZM728.083 206.113C728.083 206.113 728.083 194.577 728.083 171.506C728.083 171.506 729.235 171.506 731.538 171.506C731.538 171.506 731.538 176.576 731.538 186.717C731.538 186.717 737.523 186.717 749.495 186.717C749.495 186.717 749.495 181.646 749.495 171.506C749.495 171.506 750.646 171.506 752.949 171.506C752.949 171.506 752.949 183.042 752.949 206.113C752.949 206.113 751.798 206.113 749.495 206.113C749.495 206.113 749.495 200.692 749.495 189.85C749.495 189.85 743.509 189.85 731.538 189.85C731.538 189.85 731.538 195.271 731.538 206.113C731.538 206.113 730.386 206.113 728.083 206.113ZM364.068 202.979C364.068 202.979 371.906 202.979 387.584 202.979C387.584 202.979 383.664 193.8 375.826 175.44C375.826 175.44 371.906 184.62 364.068 202.979ZM394.858 202.979C394.858 202.979 394.858 206.151 394.858 212.495C394.858 212.495 394.042 212.495 392.41 212.495C392.41 212.495 391.976 210.367 391.106 206.113C391.106 206.113 380.927 206.113 360.568 206.113C360.568 206.113 360.125 208.24 359.241 212.495C359.241 212.495 358.433 212.495 356.816 212.495C356.816 212.495 356.816 209.323 356.816 202.979C356.816 202.979 358.006 202.979 360.385 202.979C360.385 202.979 364.876 192.488 373.858 171.506C373.858 171.506 375.17 171.506 377.793 171.506C377.793 171.506 382.292 181.997 391.289 202.979C391.289 202.979 392.479 202.979 394.858 202.979ZM1096.63 206.113C1096.63 206.113 1096.63 194.577 1096.63 171.506C1096.63 171.506 1099.81 171.506 1106.17 171.506C1108.41 171.506 1110.24 171.643 1111.66 171.918C1113.09 172.192 1114.34 172.657 1115.41 173.313C1116.72 174.091 1117.73 175.234 1118.45 176.744C1119.17 178.238 1119.53 179.984 1119.53 181.982C1119.53 183.72 1119.23 185.276 1118.63 186.648C1118.04 188.02 1117.19 189.118 1116.07 189.942C1115.02 190.719 1113.79 191.276 1112.37 191.611C1110.95 191.947 1109.07 192.115 1106.74 192.115H1100.08V206.113H1096.63ZM1100.08 188.958H1106.51C1109.62 188.958 1111.84 188.569 1113.17 187.792C1114.08 187.304 1114.78 186.549 1115.27 185.527C1115.78 184.506 1116.03 183.309 1116.03 181.936C1116.03 180.244 1115.69 178.833 1115.02 177.705C1114.35 176.561 1113.39 175.791 1112.14 175.395C1110.64 174.891 1108.26 174.64 1105 174.64H1100.08V188.958ZM1479.19 171.506C1479.19 171.506 1480.35 171.506 1482.67 171.506C1482.67 171.506 1482.67 181.997 1482.67 202.979C1482.67 202.979 1484.19 202.979 1487.22 202.979C1487.22 202.979 1487.22 206.151 1487.22 212.495C1487.22 212.495 1486.41 212.495 1484.78 212.495C1484.78 212.495 1484.34 210.367 1483.47 206.113C1483.47 206.113 1475.29 206.113 1458.93 206.113C1458.93 206.113 1458.93 194.577 1458.93 171.506C1458.93 171.506 1460.08 171.506 1462.38 171.506C1462.38 171.506 1462.38 181.997 1462.38 202.979C1462.38 202.979 1467.99 202.979 1479.19 202.979C1479.19 202.979 1479.19 192.488 1479.19 171.506ZM144.318 206.113C144.318 206.113 139.964 195.889 131.256 175.44C131.256 175.44 126.895 185.665 118.172 206.113C118.172 206.113 116.929 206.113 114.443 206.113C114.443 206.113 119.407 194.577 129.335 171.506C129.335 171.506 130.616 171.506 133.178 171.506C133.178 171.506 138.142 183.042 148.07 206.113C148.07 206.113 146.819 206.113 144.318 206.113ZM875.43 197.032C875.43 197.032 876.711 197.032 879.273 197.032C875.781 203.498 870.504 206.731 863.444 206.731C860.897 206.731 858.495 206.273 856.238 205.358C853.981 204.443 852.052 203.2 850.45 201.63C848.849 200.044 847.583 198.153 846.653 195.957C845.723 193.746 845.258 191.398 845.258 188.912C845.258 185.512 846.028 182.439 847.568 179.695C849.124 176.935 851.266 174.777 853.996 173.222C856.741 171.666 859.806 170.889 863.192 170.889C866.776 170.889 869.994 171.75 872.845 173.473C875.697 175.181 877.794 177.522 879.136 180.495H875.247C874.576 179.413 873.951 178.566 873.372 177.956C872.792 177.346 872.09 176.782 871.267 176.264C868.949 174.8 866.311 174.068 863.352 174.068C861.309 174.068 859.387 174.449 857.587 175.212C855.788 175.959 854.24 176.988 852.944 178.299C851.663 179.596 850.649 181.151 849.901 182.966C849.154 184.78 848.78 186.717 848.78 188.775C848.78 190.773 849.162 192.687 849.924 194.516C850.702 196.331 851.747 197.902 853.058 199.228C854.37 200.54 855.925 201.584 857.725 202.362C859.524 203.139 861.415 203.528 863.398 203.528C865.014 203.528 866.577 203.269 868.087 202.751C869.612 202.232 870.97 201.493 872.159 200.532C873.272 199.602 874.363 198.435 875.43 197.032ZM506.739 206.113C506.739 206.113 501.508 200.738 491.046 189.988C491.046 189.988 491.046 195.363 491.046 206.113C491.046 206.113 489.895 206.113 487.592 206.113C487.592 206.113 487.592 194.577 487.592 171.506C487.592 171.506 488.743 171.506 491.046 171.506C491.046 171.506 491.046 176.797 491.046 187.38C491.046 187.38 496.308 182.089 506.83 171.506C506.83 171.506 508.363 171.506 511.428 171.506C511.428 171.506 505.732 177.217 494.34 188.638C494.34 188.638 500.036 194.463 511.428 206.113C511.428 206.113 509.865 206.113 506.739 206.113ZM1240.83 171.506C1240.83 171.506 1235.87 183.042 1225.96 206.113C1225.96 206.113 1224.75 206.113 1222.32 206.113C1222.32 206.113 1223.64 203.056 1226.26 196.941C1226.26 196.941 1222.61 188.463 1215.32 171.506C1215.32 171.506 1216.54 171.506 1218.98 171.506C1218.98 171.506 1222.02 178.559 1228.09 192.664C1228.09 192.664 1231.12 185.611 1237.17 171.506C1237.17 171.506 1238.39 171.506 1240.83 171.506ZM1603.24 171.506C1603.24 171.506 1604.4 171.506 1606.71 171.506C1606.71 171.506 1606.71 183.042 1606.71 206.113C1606.71 206.113 1605.56 206.113 1603.24 206.113C1603.24 206.113 1603.24 196.293 1603.24 176.653C1603.24 176.653 1596.37 186.473 1582.63 206.113C1582.63 206.113 1581.48 206.113 1579.17 206.113C1579.17 206.113 1579.17 194.577 1579.17 171.506C1579.17 171.506 1580.32 171.506 1582.63 171.506C1582.63 171.506 1582.63 181.326 1582.63 200.967C1582.63 200.967 1589.5 191.146 1603.24 171.506ZM236.25 206.113C236.25 206.113 241.199 194.577 251.096 171.506C251.096 171.506 252.393 171.506 254.985 171.506C254.985 171.506 259.949 183.042 269.877 206.113C269.877 206.113 268.611 206.113 266.08 206.113C266.08 206.113 264.41 202.225 261.07 194.448C261.07 194.448 255.694 194.448 244.943 194.448C244.943 194.448 243.258 198.336 239.887 206.113C239.887 206.113 238.675 206.113 236.25 206.113ZM246.27 191.314C246.27 191.314 250.753 191.314 259.72 191.314C259.72 191.314 257.501 186.023 253.064 175.44C253.064 175.44 250.799 180.732 246.27 191.314ZM982.611 206.113C982.611 206.113 982.611 195.622 982.611 174.64C982.611 174.64 979.973 174.64 974.696 174.64C974.696 174.64 974.696 173.595 974.696 171.506C974.696 171.506 981.132 171.506 994.003 171.506C994.003 171.506 994.003 172.551 994.003 174.64C994.003 174.64 991.365 174.64 986.088 174.64C986.088 174.64 986.088 185.131 986.088 206.113C986.088 206.113 984.929 206.113 982.611 206.113ZM618.633 170.889C621.043 170.889 623.353 171.369 625.565 172.33C627.791 173.29 629.713 174.571 631.329 176.172C632.961 177.773 634.257 179.687 635.218 181.913C636.194 184.124 636.682 186.427 636.682 188.821C636.682 191.23 636.194 193.54 635.218 195.752C634.257 197.963 632.953 199.869 631.306 201.47C629.675 203.071 627.73 204.352 625.473 205.312C623.216 206.258 620.86 206.731 618.405 206.731C615.949 206.731 613.586 206.258 611.313 205.312C609.056 204.352 607.104 203.071 605.457 201.47C603.825 199.853 602.521 197.947 601.545 195.752C600.569 193.54 600.081 191.23 600.081 188.821C600.081 185.543 600.905 182.531 602.552 179.786C604.199 177.041 606.441 174.876 609.277 173.29C612.129 171.689 615.248 170.889 618.633 170.889ZM618.222 174.068C615.629 174.068 613.204 174.739 610.947 176.081C608.705 177.423 606.921 179.23 605.594 181.502C604.268 183.774 603.604 186.213 603.604 188.821C603.604 191.459 604.268 193.914 605.594 196.186C606.936 198.443 608.744 200.235 611.016 201.561C613.288 202.873 615.751 203.528 618.405 203.528C620.387 203.528 622.286 203.139 624.101 202.362C625.915 201.569 627.486 200.517 628.813 199.205C630.14 197.894 631.192 196.339 631.97 194.539C632.763 192.725 633.159 190.834 633.159 188.867C633.159 186.854 632.763 184.933 631.97 183.103C631.192 181.273 630.132 179.702 628.79 178.391C627.463 177.064 625.877 176.012 624.032 175.234C622.187 174.457 620.25 174.068 618.222 174.068ZM1359.39 206.113C1359.39 206.113 1354.16 200.738 1343.7 189.988C1343.7 189.988 1343.7 195.363 1343.7 206.113C1343.7 206.113 1342.55 206.113 1340.24 206.113C1340.24 206.113 1340.24 194.577 1340.24 171.506C1340.24 171.506 1341.39 171.506 1343.7 171.506C1343.7 171.506 1343.7 176.797 1343.7 187.38C1343.7 187.38 1348.96 182.089 1359.48 171.506C1359.48 171.506 1361.01 171.506 1364.08 171.506C1364.08 171.506 1358.38 177.217 1346.99 188.638C1346.99 188.638 1352.69 194.463 1364.08 206.113C1364.08 206.113 1362.52 206.113 1359.39 206.113ZM1725.04 171.506C1725.04 171.506 1726.2 171.506 1728.52 171.506C1728.52 171.506 1728.52 183.042 1728.52 206.113C1728.52 206.113 1727.36 206.113 1725.04 206.113C1725.04 206.113 1725.04 196.293 1725.04 176.653C1725.04 176.653 1718.17 186.473 1704.43 206.113C1704.43 206.113 1703.28 206.113 1700.98 206.113C1700.98 206.113 1700.98 194.577 1700.98 171.506C1700.98 171.506 1702.13 171.506 1704.43 171.506C1704.43 171.506 1704.43 181.326 1704.43 200.967C1704.43 200.967 1711.3 191.146 1725.04 171.506Z" stroke="#CACACA"/>
</svg>
